<mxfile host="Electron" modified="2024-01-30T13:59:10.384Z" agent="Mozilla/5.0 (X11; Linux x86_64) AppleWebKit/537.36 (KHTML, like Gecko) draw.io/23.0.2 Chrome/120.0.6099.109 Electron/28.1.0 Safari/537.36" etag="782zRnUI2UQjrmH3rCzR" version="23.0.2" type="device">
  <diagram id="C5RBs43oDa-KdzZeNtuy" name="Page-1">
    <mxGraphModel dx="1257" dy="750" grid="1" gridSize="10" guides="1" tooltips="1" connect="1" arrows="1" fold="1" page="1" pageScale="1" pageWidth="850" pageHeight="1100" math="0" shadow="0">
      <root>
        <mxCell id="WIyWlLk6GJQsqaUBKTNV-0" />
        <mxCell id="WIyWlLk6GJQsqaUBKTNV-1" parent="WIyWlLk6GJQsqaUBKTNV-0" />
        <mxCell id="N5MiafKcvx-E3PKJ9pc5-10" value="Athlete" style="swimlane;fontStyle=0;childLayout=stackLayout;horizontal=1;startSize=30;fillColor=none;horizontalStack=0;resizeParent=1;resizeParentMax=0;resizeLast=0;collapsible=1;marginBottom=0;whiteSpace=wrap;html=1;" parent="WIyWlLk6GJQsqaUBKTNV-1" vertex="1">
          <mxGeometry x="50" y="210" width="140" height="160" as="geometry" />
        </mxCell>
        <mxCell id="N5MiafKcvx-E3PKJ9pc5-11" value="name: String" style="text;strokeColor=none;fillColor=none;align=left;verticalAlign=top;spacingLeft=4;spacingRight=4;overflow=hidden;rotatable=0;points=[[0,0.5],[1,0.5]];portConstraint=eastwest;whiteSpace=wrap;html=1;" parent="N5MiafKcvx-E3PKJ9pc5-10" vertex="1">
          <mxGeometry y="30" width="140" height="26" as="geometry" />
        </mxCell>
        <mxCell id="N5MiafKcvx-E3PKJ9pc5-12" value="surnames: String" style="text;strokeColor=none;fillColor=none;align=left;verticalAlign=top;spacingLeft=4;spacingRight=4;overflow=hidden;rotatable=0;points=[[0,0.5],[1,0.5]];portConstraint=eastwest;whiteSpace=wrap;html=1;" parent="N5MiafKcvx-E3PKJ9pc5-10" vertex="1">
          <mxGeometry y="56" width="140" height="26" as="geometry" />
        </mxCell>
        <mxCell id="oP1qmsx0sS4jUwwxtjEG-0" value="ocupation: String" style="text;strokeColor=none;fillColor=none;align=left;verticalAlign=top;spacingLeft=4;spacingRight=4;overflow=hidden;rotatable=0;points=[[0,0.5],[1,0.5]];portConstraint=eastwest;whiteSpace=wrap;html=1;" vertex="1" parent="N5MiafKcvx-E3PKJ9pc5-10">
          <mxGeometry y="82" width="140" height="26" as="geometry" />
        </mxCell>
        <mxCell id="oP1qmsx0sS4jUwwxtjEG-1" value="biography: String" style="text;strokeColor=none;fillColor=none;align=left;verticalAlign=top;spacingLeft=4;spacingRight=4;overflow=hidden;rotatable=0;points=[[0,0.5],[1,0.5]];portConstraint=eastwest;whiteSpace=wrap;html=1;" vertex="1" parent="N5MiafKcvx-E3PKJ9pc5-10">
          <mxGeometry y="108" width="140" height="26" as="geometry" />
        </mxCell>
        <mxCell id="oP1qmsx0sS4jUwwxtjEG-2" value="picture: file" style="text;strokeColor=none;fillColor=none;align=left;verticalAlign=top;spacingLeft=4;spacingRight=4;overflow=hidden;rotatable=0;points=[[0,0.5],[1,0.5]];portConstraint=eastwest;whiteSpace=wrap;html=1;" vertex="1" parent="N5MiafKcvx-E3PKJ9pc5-10">
          <mxGeometry y="134" width="140" height="26" as="geometry" />
        </mxCell>
        <mxCell id="N5MiafKcvx-E3PKJ9pc5-21" value="Faculty" style="swimlane;fontStyle=0;childLayout=stackLayout;horizontal=1;startSize=26;fillColor=none;horizontalStack=0;resizeParent=1;resizeParentMax=0;resizeLast=0;collapsible=1;marginBottom=0;whiteSpace=wrap;html=1;" parent="WIyWlLk6GJQsqaUBKTNV-1" vertex="1">
          <mxGeometry x="240" y="50" width="140" height="104" as="geometry" />
        </mxCell>
        <mxCell id="N5MiafKcvx-E3PKJ9pc5-22" value="name: String" style="text;strokeColor=none;fillColor=none;align=left;verticalAlign=top;spacingLeft=4;spacingRight=4;overflow=hidden;rotatable=0;points=[[0,0.5],[1,0.5]];portConstraint=eastwest;whiteSpace=wrap;html=1;" parent="N5MiafKcvx-E3PKJ9pc5-21" vertex="1">
          <mxGeometry y="26" width="140" height="26" as="geometry" />
        </mxCell>
        <mxCell id="oP1qmsx0sS4jUwwxtjEG-3" value="points: String" style="text;strokeColor=none;fillColor=none;align=left;verticalAlign=top;spacingLeft=4;spacingRight=4;overflow=hidden;rotatable=0;points=[[0,0.5],[1,0.5]];portConstraint=eastwest;whiteSpace=wrap;html=1;" vertex="1" parent="N5MiafKcvx-E3PKJ9pc5-21">
          <mxGeometry y="52" width="140" height="26" as="geometry" />
        </mxCell>
        <mxCell id="oP1qmsx0sS4jUwwxtjEG-4" value="medals: String" style="text;strokeColor=none;fillColor=none;align=left;verticalAlign=top;spacingLeft=4;spacingRight=4;overflow=hidden;rotatable=0;points=[[0,0.5],[1,0.5]];portConstraint=eastwest;whiteSpace=wrap;html=1;" vertex="1" parent="N5MiafKcvx-E3PKJ9pc5-21">
          <mxGeometry y="78" width="140" height="26" as="geometry" />
        </mxCell>
        <mxCell id="N5MiafKcvx-E3PKJ9pc5-30" value="Team" style="swimlane;fontStyle=0;childLayout=stackLayout;horizontal=1;startSize=26;fillColor=none;horizontalStack=0;resizeParent=1;resizeParentMax=0;resizeLast=0;collapsible=1;marginBottom=0;whiteSpace=wrap;html=1;" parent="WIyWlLk6GJQsqaUBKTNV-1" vertex="1">
          <mxGeometry x="240" y="210" width="140" height="78" as="geometry" />
        </mxCell>
        <mxCell id="N5MiafKcvx-E3PKJ9pc5-31" value="name: String" style="text;strokeColor=none;fillColor=none;align=left;verticalAlign=top;spacingLeft=4;spacingRight=4;overflow=hidden;rotatable=0;points=[[0,0.5],[1,0.5]];portConstraint=eastwest;whiteSpace=wrap;html=1;" parent="N5MiafKcvx-E3PKJ9pc5-30" vertex="1">
          <mxGeometry y="26" width="140" height="26" as="geometry" />
        </mxCell>
        <mxCell id="N5MiafKcvx-E3PKJ9pc5-45" value="type: String" style="text;strokeColor=none;fillColor=none;align=left;verticalAlign=top;spacingLeft=4;spacingRight=4;overflow=hidden;rotatable=0;points=[[0,0.5],[1,0.5]];portConstraint=eastwest;whiteSpace=wrap;html=1;" parent="N5MiafKcvx-E3PKJ9pc5-30" vertex="1">
          <mxGeometry y="52" width="140" height="26" as="geometry" />
        </mxCell>
        <mxCell id="N5MiafKcvx-E3PKJ9pc5-41" value="Sport" style="swimlane;fontStyle=0;childLayout=stackLayout;horizontal=1;startSize=26;fillColor=none;horizontalStack=0;resizeParent=1;resizeParentMax=0;resizeLast=0;collapsible=1;marginBottom=0;whiteSpace=wrap;html=1;" parent="WIyWlLk6GJQsqaUBKTNV-1" vertex="1">
          <mxGeometry x="435" y="225" width="140" height="52" as="geometry" />
        </mxCell>
        <mxCell id="N5MiafKcvx-E3PKJ9pc5-42" value="name: String" style="text;strokeColor=none;fillColor=none;align=left;verticalAlign=top;spacingLeft=4;spacingRight=4;overflow=hidden;rotatable=0;points=[[0,0.5],[1,0.5]];portConstraint=eastwest;whiteSpace=wrap;html=1;" parent="N5MiafKcvx-E3PKJ9pc5-41" vertex="1">
          <mxGeometry y="26" width="140" height="26" as="geometry" />
        </mxCell>
        <mxCell id="N5MiafKcvx-E3PKJ9pc5-49" value="User" style="swimlane;fontStyle=0;childLayout=stackLayout;horizontal=1;startSize=26;fillColor=none;horizontalStack=0;resizeParent=1;resizeParentMax=0;resizeLast=0;collapsible=1;marginBottom=0;whiteSpace=wrap;html=1;" parent="WIyWlLk6GJQsqaUBKTNV-1" vertex="1">
          <mxGeometry x="240" y="850" width="140" height="52" as="geometry" />
        </mxCell>
        <mxCell id="N5MiafKcvx-E3PKJ9pc5-50" value="type: String" style="text;strokeColor=none;fillColor=none;align=left;verticalAlign=top;spacingLeft=4;spacingRight=4;overflow=hidden;rotatable=0;points=[[0,0.5],[1,0.5]];portConstraint=eastwest;whiteSpace=wrap;html=1;" parent="N5MiafKcvx-E3PKJ9pc5-49" vertex="1">
          <mxGeometry y="26" width="140" height="26" as="geometry" />
        </mxCell>
        <mxCell id="N5MiafKcvx-E3PKJ9pc5-65" value="News" style="swimlane;fontStyle=0;childLayout=stackLayout;horizontal=1;startSize=26;fillColor=none;horizontalStack=0;resizeParent=1;resizeParentMax=0;resizeLast=0;collapsible=1;marginBottom=0;whiteSpace=wrap;html=1;" parent="WIyWlLk6GJQsqaUBKTNV-1" vertex="1">
          <mxGeometry x="240" y="630" width="140" height="130" as="geometry" />
        </mxCell>
        <mxCell id="N5MiafKcvx-E3PKJ9pc5-66" value="title: String" style="text;strokeColor=none;fillColor=none;align=left;verticalAlign=top;spacingLeft=4;spacingRight=4;overflow=hidden;rotatable=0;points=[[0,0.5],[1,0.5]];portConstraint=eastwest;whiteSpace=wrap;html=1;" parent="N5MiafKcvx-E3PKJ9pc5-65" vertex="1">
          <mxGeometry y="26" width="140" height="26" as="geometry" />
        </mxCell>
        <mxCell id="N5MiafKcvx-E3PKJ9pc5-67" value="body: String" style="text;strokeColor=none;fillColor=none;align=left;verticalAlign=top;spacingLeft=4;spacingRight=4;overflow=hidden;rotatable=0;points=[[0,0.5],[1,0.5]];portConstraint=eastwest;whiteSpace=wrap;html=1;" parent="N5MiafKcvx-E3PKJ9pc5-65" vertex="1">
          <mxGeometry y="52" width="140" height="26" as="geometry" />
        </mxCell>
        <mxCell id="N5MiafKcvx-E3PKJ9pc5-106" value="date: String" style="text;strokeColor=none;fillColor=none;align=left;verticalAlign=top;spacingLeft=4;spacingRight=4;overflow=hidden;rotatable=0;points=[[0,0.5],[1,0.5]];portConstraint=eastwest;whiteSpace=wrap;html=1;" parent="N5MiafKcvx-E3PKJ9pc5-65" vertex="1">
          <mxGeometry y="78" width="140" height="26" as="geometry" />
        </mxCell>
        <mxCell id="N5MiafKcvx-E3PKJ9pc5-107" value="picture: file" style="text;strokeColor=none;fillColor=none;align=left;verticalAlign=top;spacingLeft=4;spacingRight=4;overflow=hidden;rotatable=0;points=[[0,0.5],[1,0.5]];portConstraint=eastwest;whiteSpace=wrap;html=1;" parent="N5MiafKcvx-E3PKJ9pc5-65" vertex="1">
          <mxGeometry y="104" width="140" height="26" as="geometry" />
        </mxCell>
        <mxCell id="N5MiafKcvx-E3PKJ9pc5-69" value="Admin" style="swimlane;fontStyle=0;childLayout=stackLayout;horizontal=1;startSize=26;fillColor=none;horizontalStack=0;resizeParent=1;resizeParentMax=0;resizeLast=0;collapsible=1;marginBottom=0;whiteSpace=wrap;html=1;" parent="WIyWlLk6GJQsqaUBKTNV-1" vertex="1">
          <mxGeometry x="70" y="970" width="140" height="104" as="geometry" />
        </mxCell>
        <mxCell id="N5MiafKcvx-E3PKJ9pc5-71" value="nick: String" style="text;strokeColor=none;fillColor=none;align=left;verticalAlign=top;spacingLeft=4;spacingRight=4;overflow=hidden;rotatable=0;points=[[0,0.5],[1,0.5]];portConstraint=eastwest;whiteSpace=wrap;html=1;" parent="N5MiafKcvx-E3PKJ9pc5-69" vertex="1">
          <mxGeometry y="26" width="140" height="26" as="geometry" />
        </mxCell>
        <mxCell id="N5MiafKcvx-E3PKJ9pc5-72" value="email: String" style="text;strokeColor=none;fillColor=none;align=left;verticalAlign=top;spacingLeft=4;spacingRight=4;overflow=hidden;rotatable=0;points=[[0,0.5],[1,0.5]];portConstraint=eastwest;whiteSpace=wrap;html=1;" parent="N5MiafKcvx-E3PKJ9pc5-69" vertex="1">
          <mxGeometry y="52" width="140" height="26" as="geometry" />
        </mxCell>
        <mxCell id="N5MiafKcvx-E3PKJ9pc5-73" value="password: String" style="text;strokeColor=none;fillColor=none;align=left;verticalAlign=top;spacingLeft=4;spacingRight=4;overflow=hidden;rotatable=0;points=[[0,0.5],[1,0.5]];portConstraint=eastwest;whiteSpace=wrap;html=1;" parent="N5MiafKcvx-E3PKJ9pc5-69" vertex="1">
          <mxGeometry y="78" width="140" height="26" as="geometry" />
        </mxCell>
        <mxCell id="N5MiafKcvx-E3PKJ9pc5-74" value="Spectator" style="swimlane;fontStyle=0;childLayout=stackLayout;horizontal=1;startSize=26;fillColor=none;horizontalStack=0;resizeParent=1;resizeParentMax=0;resizeLast=0;collapsible=1;marginBottom=0;whiteSpace=wrap;html=1;" parent="WIyWlLk6GJQsqaUBKTNV-1" vertex="1">
          <mxGeometry x="240" y="970" width="130" height="30" as="geometry" />
        </mxCell>
        <mxCell id="N5MiafKcvx-E3PKJ9pc5-79" value="Visitor" style="swimlane;fontStyle=0;childLayout=stackLayout;horizontal=1;startSize=26;fillColor=none;horizontalStack=0;resizeParent=1;resizeParentMax=0;resizeLast=0;collapsible=1;marginBottom=0;whiteSpace=wrap;html=1;" parent="WIyWlLk6GJQsqaUBKTNV-1" vertex="1">
          <mxGeometry x="420" y="970" width="140" height="104" as="geometry" />
        </mxCell>
        <mxCell id="N5MiafKcvx-E3PKJ9pc5-81" value="nick: String" style="text;strokeColor=none;fillColor=none;align=left;verticalAlign=top;spacingLeft=4;spacingRight=4;overflow=hidden;rotatable=0;points=[[0,0.5],[1,0.5]];portConstraint=eastwest;whiteSpace=wrap;html=1;" parent="N5MiafKcvx-E3PKJ9pc5-79" vertex="1">
          <mxGeometry y="26" width="140" height="26" as="geometry" />
        </mxCell>
        <mxCell id="N5MiafKcvx-E3PKJ9pc5-82" value="email: String" style="text;strokeColor=none;fillColor=none;align=left;verticalAlign=top;spacingLeft=4;spacingRight=4;overflow=hidden;rotatable=0;points=[[0,0.5],[1,0.5]];portConstraint=eastwest;whiteSpace=wrap;html=1;" parent="N5MiafKcvx-E3PKJ9pc5-79" vertex="1">
          <mxGeometry y="52" width="140" height="26" as="geometry" />
        </mxCell>
        <mxCell id="N5MiafKcvx-E3PKJ9pc5-83" value="password: String" style="text;strokeColor=none;fillColor=none;align=left;verticalAlign=top;spacingLeft=4;spacingRight=4;overflow=hidden;rotatable=0;points=[[0,0.5],[1,0.5]];portConstraint=eastwest;whiteSpace=wrap;html=1;" parent="N5MiafKcvx-E3PKJ9pc5-79" vertex="1">
          <mxGeometry y="78" width="140" height="26" as="geometry" />
        </mxCell>
        <mxCell id="N5MiafKcvx-E3PKJ9pc5-114" value="Comment" style="swimlane;fontStyle=0;childLayout=stackLayout;horizontal=1;startSize=26;fillColor=none;horizontalStack=0;resizeParent=1;resizeParentMax=0;resizeLast=0;collapsible=1;marginBottom=0;whiteSpace=wrap;html=1;" parent="WIyWlLk6GJQsqaUBKTNV-1" vertex="1">
          <mxGeometry x="660" y="812" width="140" height="78" as="geometry" />
        </mxCell>
        <mxCell id="N5MiafKcvx-E3PKJ9pc5-115" value="title: String" style="text;strokeColor=none;fillColor=none;align=left;verticalAlign=top;spacingLeft=4;spacingRight=4;overflow=hidden;rotatable=0;points=[[0,0.5],[1,0.5]];portConstraint=eastwest;whiteSpace=wrap;html=1;" parent="N5MiafKcvx-E3PKJ9pc5-114" vertex="1">
          <mxGeometry y="26" width="140" height="26" as="geometry" />
        </mxCell>
        <mxCell id="N5MiafKcvx-E3PKJ9pc5-116" value="body: String" style="text;strokeColor=none;fillColor=none;align=left;verticalAlign=top;spacingLeft=4;spacingRight=4;overflow=hidden;rotatable=0;points=[[0,0.5],[1,0.5]];portConstraint=eastwest;whiteSpace=wrap;html=1;" parent="N5MiafKcvx-E3PKJ9pc5-114" vertex="1">
          <mxGeometry y="52" width="140" height="26" as="geometry" />
        </mxCell>
        <mxCell id="N5MiafKcvx-E3PKJ9pc5-133" value="Commissioner" style="swimlane;fontStyle=0;childLayout=stackLayout;horizontal=1;startSize=26;fillColor=none;horizontalStack=0;resizeParent=1;resizeParentMax=0;resizeLast=0;collapsible=1;marginBottom=0;whiteSpace=wrap;html=1;" parent="WIyWlLk6GJQsqaUBKTNV-1" vertex="1">
          <mxGeometry x="660" y="944" width="140" height="130" as="geometry" />
        </mxCell>
        <mxCell id="N5MiafKcvx-E3PKJ9pc5-134" value="name: String" style="text;strokeColor=none;fillColor=none;align=left;verticalAlign=top;spacingLeft=4;spacingRight=4;overflow=hidden;rotatable=0;points=[[0,0.5],[1,0.5]];portConstraint=eastwest;whiteSpace=wrap;html=1;" parent="N5MiafKcvx-E3PKJ9pc5-133" vertex="1">
          <mxGeometry y="26" width="140" height="26" as="geometry" />
        </mxCell>
        <mxCell id="N5MiafKcvx-E3PKJ9pc5-135" value="position: String" style="text;strokeColor=none;fillColor=none;align=left;verticalAlign=top;spacingLeft=4;spacingRight=4;overflow=hidden;rotatable=0;points=[[0,0.5],[1,0.5]];portConstraint=eastwest;whiteSpace=wrap;html=1;" parent="N5MiafKcvx-E3PKJ9pc5-133" vertex="1">
          <mxGeometry y="52" width="140" height="26" as="geometry" />
        </mxCell>
        <mxCell id="N5MiafKcvx-E3PKJ9pc5-136" value="biography: String" style="text;strokeColor=none;fillColor=none;align=left;verticalAlign=top;spacingLeft=4;spacingRight=4;overflow=hidden;rotatable=0;points=[[0,0.5],[1,0.5]];portConstraint=eastwest;whiteSpace=wrap;html=1;" parent="N5MiafKcvx-E3PKJ9pc5-133" vertex="1">
          <mxGeometry y="78" width="140" height="26" as="geometry" />
        </mxCell>
        <mxCell id="N5MiafKcvx-E3PKJ9pc5-137" value="picture: file" style="text;strokeColor=none;fillColor=none;align=left;verticalAlign=top;spacingLeft=4;spacingRight=4;overflow=hidden;rotatable=0;points=[[0,0.5],[1,0.5]];portConstraint=eastwest;whiteSpace=wrap;html=1;" parent="N5MiafKcvx-E3PKJ9pc5-133" vertex="1">
          <mxGeometry y="104" width="140" height="26" as="geometry" />
        </mxCell>
        <mxCell id="N5MiafKcvx-E3PKJ9pc5-138" value="Document" style="swimlane;fontStyle=0;childLayout=stackLayout;horizontal=1;startSize=26;fillColor=none;horizontalStack=0;resizeParent=1;resizeParentMax=0;resizeLast=0;collapsible=1;marginBottom=0;whiteSpace=wrap;html=1;" parent="WIyWlLk6GJQsqaUBKTNV-1" vertex="1">
          <mxGeometry x="660" y="682" width="140" height="78" as="geometry" />
        </mxCell>
        <mxCell id="N5MiafKcvx-E3PKJ9pc5-139" value="type: String" style="text;strokeColor=none;fillColor=none;align=left;verticalAlign=top;spacingLeft=4;spacingRight=4;overflow=hidden;rotatable=0;points=[[0,0.5],[1,0.5]];portConstraint=eastwest;whiteSpace=wrap;html=1;" parent="N5MiafKcvx-E3PKJ9pc5-138" vertex="1">
          <mxGeometry y="26" width="140" height="26" as="geometry" />
        </mxCell>
        <mxCell id="N5MiafKcvx-E3PKJ9pc5-140" value="file: file" style="text;strokeColor=none;fillColor=none;align=left;verticalAlign=top;spacingLeft=4;spacingRight=4;overflow=hidden;rotatable=0;points=[[0,0.5],[1,0.5]];portConstraint=eastwest;whiteSpace=wrap;html=1;" parent="N5MiafKcvx-E3PKJ9pc5-138" vertex="1">
          <mxGeometry y="52" width="140" height="26" as="geometry" />
        </mxCell>
        <mxCell id="oP1qmsx0sS4jUwwxtjEG-6" value="" style="edgeStyle=orthogonalEdgeStyle;rounded=0;orthogonalLoop=1;jettySize=auto;html=1;endArrow=none;endFill=0;" edge="1" parent="WIyWlLk6GJQsqaUBKTNV-1" source="N5MiafKcvx-E3PKJ9pc5-142" target="oP1qmsx0sS4jUwwxtjEG-5">
          <mxGeometry relative="1" as="geometry" />
        </mxCell>
        <mxCell id="oP1qmsx0sS4jUwwxtjEG-32" value="1" style="edgeLabel;html=1;align=center;verticalAlign=middle;resizable=0;points=[];" vertex="1" connectable="0" parent="oP1qmsx0sS4jUwwxtjEG-6">
          <mxGeometry x="-0.5048" y="2" relative="1" as="geometry">
            <mxPoint as="offset" />
          </mxGeometry>
        </mxCell>
        <mxCell id="oP1qmsx0sS4jUwwxtjEG-22" value="" style="edgeStyle=orthogonalEdgeStyle;rounded=0;orthogonalLoop=1;jettySize=auto;html=1;endArrow=none;endFill=0;" edge="1" parent="WIyWlLk6GJQsqaUBKTNV-1" source="N5MiafKcvx-E3PKJ9pc5-142" target="oP1qmsx0sS4jUwwxtjEG-21">
          <mxGeometry relative="1" as="geometry" />
        </mxCell>
        <mxCell id="oP1qmsx0sS4jUwwxtjEG-28" value="1" style="edgeLabel;html=1;align=center;verticalAlign=middle;resizable=0;points=[];" vertex="1" connectable="0" parent="oP1qmsx0sS4jUwwxtjEG-22">
          <mxGeometry x="-0.8434" y="1" relative="1" as="geometry">
            <mxPoint as="offset" />
          </mxGeometry>
        </mxCell>
        <mxCell id="N5MiafKcvx-E3PKJ9pc5-142" value="Game" style="swimlane;fontStyle=0;childLayout=stackLayout;horizontal=1;startSize=26;fillColor=none;horizontalStack=0;resizeParent=1;resizeParentMax=0;resizeLast=0;collapsible=1;marginBottom=0;whiteSpace=wrap;html=1;" parent="WIyWlLk6GJQsqaUBKTNV-1" vertex="1">
          <mxGeometry x="235" y="440" width="140" height="130" as="geometry" />
        </mxCell>
        <mxCell id="N5MiafKcvx-E3PKJ9pc5-145" value="sex: String" style="text;strokeColor=none;fillColor=none;align=left;verticalAlign=top;spacingLeft=4;spacingRight=4;overflow=hidden;rotatable=0;points=[[0,0.5],[1,0.5]];portConstraint=eastwest;whiteSpace=wrap;html=1;" parent="N5MiafKcvx-E3PKJ9pc5-142" vertex="1">
          <mxGeometry y="26" width="140" height="26" as="geometry" />
        </mxCell>
        <mxCell id="N5MiafKcvx-E3PKJ9pc5-152" value="campus: String" style="text;strokeColor=none;fillColor=none;align=left;verticalAlign=top;spacingLeft=4;spacingRight=4;overflow=hidden;rotatable=0;points=[[0,0.5],[1,0.5]];portConstraint=eastwest;whiteSpace=wrap;html=1;" parent="N5MiafKcvx-E3PKJ9pc5-142" vertex="1">
          <mxGeometry y="52" width="140" height="26" as="geometry" />
        </mxCell>
        <mxCell id="N5MiafKcvx-E3PKJ9pc5-153" value="phase: String" style="text;strokeColor=none;fillColor=none;align=left;verticalAlign=top;spacingLeft=4;spacingRight=4;overflow=hidden;rotatable=0;points=[[0,0.5],[1,0.5]];portConstraint=eastwest;whiteSpace=wrap;html=1;" parent="N5MiafKcvx-E3PKJ9pc5-142" vertex="1">
          <mxGeometry y="78" width="140" height="26" as="geometry" />
        </mxCell>
        <mxCell id="N5MiafKcvx-E3PKJ9pc5-155" value="expanded results: String" style="text;strokeColor=none;fillColor=none;align=left;verticalAlign=top;spacingLeft=4;spacingRight=4;overflow=hidden;rotatable=0;points=[[0,0.5],[1,0.5]];portConstraint=eastwest;whiteSpace=wrap;html=1;" parent="N5MiafKcvx-E3PKJ9pc5-142" vertex="1">
          <mxGeometry y="104" width="140" height="26" as="geometry" />
        </mxCell>
        <mxCell id="A8wqGrKDp0JPoM8GPUmS-9" value="&lt;h1 style=&quot;font-size: 50px;&quot;&gt;&lt;span style=&quot;background-color: initial; font-weight: normal; font-size: 50px;&quot;&gt;C&lt;/span&gt;&lt;br style=&quot;font-size: 50px;&quot;&gt;&lt;/h1&gt;&lt;h1 style=&quot;font-size: 50px;&quot;&gt;&lt;font style=&quot;font-size: 50px;&quot;&gt;a&lt;/font&gt;&lt;/h1&gt;&lt;h1 style=&quot;font-size: 50px;&quot;&gt;&lt;font style=&quot;font-size: 50px;&quot;&gt;r&lt;/font&gt;&lt;/h1&gt;&lt;h1 style=&quot;font-size: 50px;&quot;&gt;&lt;font style=&quot;font-size: 50px;&quot;&gt;i&lt;/font&gt;&lt;/h1&gt;&lt;h1 style=&quot;font-size: 50px;&quot;&gt;&lt;font style=&quot;font-size: 50px;&quot;&gt;b&lt;/font&gt;&lt;/h1&gt;&lt;h1 style=&quot;font-size: 50px;&quot;&gt;&lt;font style=&quot;font-size: 50px;&quot;&gt;e&lt;/font&gt;&lt;/h1&gt;" style="text;html=1;align=center;verticalAlign=middle;resizable=0;points=[];autosize=1;fontFamily=Times New Roman;fontSize=50;spacing=0;strokeColor=none;" parent="WIyWlLk6GJQsqaUBKTNV-1" vertex="1">
          <mxGeometry x="720" y="100" width="50" height="600" as="geometry" />
        </mxCell>
        <mxCell id="A8wqGrKDp0JPoM8GPUmS-10" value="&lt;h1 style=&quot;font-size: 50px;&quot;&gt;J&lt;/h1&gt;&lt;h1 style=&quot;font-size: 50px;&quot;&gt;u&lt;/h1&gt;&lt;h1 style=&quot;font-size: 50px;&quot;&gt;e&lt;/h1&gt;&lt;h1 style=&quot;font-size: 50px;&quot;&gt;g&lt;/h1&gt;&lt;h1 style=&quot;font-size: 50px;&quot;&gt;o&lt;/h1&gt;&lt;h1 style=&quot;font-size: 50px;&quot;&gt;s&lt;/h1&gt;" style="text;html=1;align=center;verticalAlign=middle;resizable=0;points=[];autosize=1;fontFamily=Times New Roman;fontSize=50;spacing=0;strokeColor=none;" parent="WIyWlLk6GJQsqaUBKTNV-1" vertex="1">
          <mxGeometry x="640" y="10" width="50" height="600" as="geometry" />
        </mxCell>
        <mxCell id="oP1qmsx0sS4jUwwxtjEG-7" value="" style="edgeStyle=orthogonalEdgeStyle;rounded=0;orthogonalLoop=1;jettySize=auto;html=1;endArrow=none;endFill=0;" edge="1" parent="WIyWlLk6GJQsqaUBKTNV-1" source="oP1qmsx0sS4jUwwxtjEG-5">
          <mxGeometry relative="1" as="geometry">
            <mxPoint x="305" y="290" as="targetPoint" />
            <Array as="points">
              <mxPoint x="305" y="300" />
            </Array>
          </mxGeometry>
        </mxCell>
        <mxCell id="oP1qmsx0sS4jUwwxtjEG-30" value="*" style="edgeLabel;html=1;align=center;verticalAlign=middle;resizable=0;points=[];" vertex="1" connectable="0" parent="oP1qmsx0sS4jUwwxtjEG-7">
          <mxGeometry x="0.6457" relative="1" as="geometry">
            <mxPoint as="offset" />
          </mxGeometry>
        </mxCell>
        <mxCell id="oP1qmsx0sS4jUwwxtjEG-13" value="" style="edgeStyle=orthogonalEdgeStyle;rounded=0;orthogonalLoop=1;jettySize=auto;html=1;entryX=0;entryY=0.25;entryDx=0;entryDy=0;endArrow=none;endFill=0;" edge="1" parent="WIyWlLk6GJQsqaUBKTNV-1" source="oP1qmsx0sS4jUwwxtjEG-5" target="oP1qmsx0sS4jUwwxtjEG-8">
          <mxGeometry relative="1" as="geometry" />
        </mxCell>
        <mxCell id="oP1qmsx0sS4jUwwxtjEG-31" value="1" style="edgeLabel;html=1;align=center;verticalAlign=middle;resizable=0;points=[];" vertex="1" connectable="0" parent="oP1qmsx0sS4jUwwxtjEG-13">
          <mxGeometry x="0.5765" y="1" relative="1" as="geometry">
            <mxPoint as="offset" />
          </mxGeometry>
        </mxCell>
        <mxCell id="oP1qmsx0sS4jUwwxtjEG-17" value="" style="edgeStyle=orthogonalEdgeStyle;rounded=0;orthogonalLoop=1;jettySize=auto;html=1;endArrow=none;endFill=0;entryX=1;entryY=0.5;entryDx=0;entryDy=0;" edge="1" parent="WIyWlLk6GJQsqaUBKTNV-1" source="oP1qmsx0sS4jUwwxtjEG-5" target="oP1qmsx0sS4jUwwxtjEG-18">
          <mxGeometry relative="1" as="geometry">
            <mxPoint x="250" y="360" as="targetPoint" />
          </mxGeometry>
        </mxCell>
        <mxCell id="oP1qmsx0sS4jUwwxtjEG-5" value="" style="rhombus;whiteSpace=wrap;html=1;fillColor=none;fontStyle=0;startSize=26;" vertex="1" parent="WIyWlLk6GJQsqaUBKTNV-1">
          <mxGeometry x="282.5" y="340" width="45" height="40" as="geometry" />
        </mxCell>
        <mxCell id="oP1qmsx0sS4jUwwxtjEG-8" value="Date" style="swimlane;fontStyle=0;childLayout=stackLayout;horizontal=1;startSize=26;fillColor=none;horizontalStack=0;resizeParent=1;resizeParentMax=0;resizeLast=0;collapsible=1;marginBottom=0;whiteSpace=wrap;html=1;" vertex="1" parent="WIyWlLk6GJQsqaUBKTNV-1">
          <mxGeometry x="370" y="350" width="90" height="40" as="geometry" />
        </mxCell>
        <mxCell id="oP1qmsx0sS4jUwwxtjEG-18" value="result" style="ellipse;whiteSpace=wrap;html=1;" vertex="1" parent="WIyWlLk6GJQsqaUBKTNV-1">
          <mxGeometry x="220" y="347.5" width="40" height="25" as="geometry" />
        </mxCell>
        <mxCell id="oP1qmsx0sS4jUwwxtjEG-26" style="edgeStyle=orthogonalEdgeStyle;rounded=0;orthogonalLoop=1;jettySize=auto;html=1;exitX=0.5;exitY=0;exitDx=0;exitDy=0;entryX=0.639;entryY=0.984;entryDx=0;entryDy=0;entryPerimeter=0;endArrow=none;endFill=0;" edge="1" parent="WIyWlLk6GJQsqaUBKTNV-1" source="oP1qmsx0sS4jUwwxtjEG-21" target="N5MiafKcvx-E3PKJ9pc5-42">
          <mxGeometry relative="1" as="geometry">
            <mxPoint x="525" y="280" as="targetPoint" />
            <Array as="points">
              <mxPoint x="532" y="380" />
              <mxPoint x="532" y="277" />
            </Array>
          </mxGeometry>
        </mxCell>
        <mxCell id="oP1qmsx0sS4jUwwxtjEG-29" value="1" style="edgeLabel;html=1;align=center;verticalAlign=middle;resizable=0;points=[];" vertex="1" connectable="0" parent="oP1qmsx0sS4jUwwxtjEG-26">
          <mxGeometry x="0.7958" y="1" relative="1" as="geometry">
            <mxPoint as="offset" />
          </mxGeometry>
        </mxCell>
        <mxCell id="oP1qmsx0sS4jUwwxtjEG-21" value="" style="rhombus;whiteSpace=wrap;html=1;fillColor=none;fontStyle=0;startSize=26;" vertex="1" parent="WIyWlLk6GJQsqaUBKTNV-1">
          <mxGeometry x="510" y="482.5" width="45" height="45" as="geometry" />
        </mxCell>
        <mxCell id="oP1qmsx0sS4jUwwxtjEG-36" value="" style="edgeStyle=orthogonalEdgeStyle;rounded=0;orthogonalLoop=1;jettySize=auto;html=1;endArrow=none;endFill=0;" edge="1" parent="WIyWlLk6GJQsqaUBKTNV-1" source="oP1qmsx0sS4jUwwxtjEG-35">
          <mxGeometry relative="1" as="geometry">
            <mxPoint x="440" y="251" as="targetPoint" />
          </mxGeometry>
        </mxCell>
        <mxCell id="oP1qmsx0sS4jUwwxtjEG-40" value="1" style="edgeLabel;html=1;align=center;verticalAlign=middle;resizable=0;points=[];" vertex="1" connectable="0" parent="oP1qmsx0sS4jUwwxtjEG-36">
          <mxGeometry x="-0.169" relative="1" as="geometry">
            <mxPoint as="offset" />
          </mxGeometry>
        </mxCell>
        <mxCell id="oP1qmsx0sS4jUwwxtjEG-38" style="edgeStyle=orthogonalEdgeStyle;rounded=0;orthogonalLoop=1;jettySize=auto;html=1;exitX=0;exitY=0.5;exitDx=0;exitDy=0;entryX=1;entryY=0.5;entryDx=0;entryDy=0;endArrow=none;endFill=0;" edge="1" parent="WIyWlLk6GJQsqaUBKTNV-1" source="oP1qmsx0sS4jUwwxtjEG-35" target="N5MiafKcvx-E3PKJ9pc5-31">
          <mxGeometry relative="1" as="geometry" />
        </mxCell>
        <mxCell id="oP1qmsx0sS4jUwwxtjEG-39" value="*" style="edgeLabel;html=1;align=center;verticalAlign=middle;resizable=0;points=[];" vertex="1" connectable="0" parent="oP1qmsx0sS4jUwwxtjEG-38">
          <mxGeometry x="0.1771" y="3" relative="1" as="geometry">
            <mxPoint as="offset" />
          </mxGeometry>
        </mxCell>
        <mxCell id="oP1qmsx0sS4jUwwxtjEG-35" value="" style="rhombus;whiteSpace=wrap;html=1;" vertex="1" parent="WIyWlLk6GJQsqaUBKTNV-1">
          <mxGeometry x="400" y="243" width="15" height="16" as="geometry" />
        </mxCell>
        <mxCell id="oP1qmsx0sS4jUwwxtjEG-43" style="edgeStyle=orthogonalEdgeStyle;rounded=0;orthogonalLoop=1;jettySize=auto;html=1;exitX=1;exitY=0.5;exitDx=0;exitDy=0;entryX=0;entryY=0.5;entryDx=0;entryDy=0;endArrow=none;endFill=0;" edge="1" parent="WIyWlLk6GJQsqaUBKTNV-1" source="oP1qmsx0sS4jUwwxtjEG-41" target="N5MiafKcvx-E3PKJ9pc5-31">
          <mxGeometry relative="1" as="geometry" />
        </mxCell>
        <mxCell id="oP1qmsx0sS4jUwwxtjEG-45" value="1" style="edgeLabel;html=1;align=center;verticalAlign=middle;resizable=0;points=[];" vertex="1" connectable="0" parent="oP1qmsx0sS4jUwwxtjEG-43">
          <mxGeometry x="-0.0415" y="1" relative="1" as="geometry">
            <mxPoint as="offset" />
          </mxGeometry>
        </mxCell>
        <mxCell id="oP1qmsx0sS4jUwwxtjEG-41" value="" style="rhombus;whiteSpace=wrap;html=1;" vertex="1" parent="WIyWlLk6GJQsqaUBKTNV-1">
          <mxGeometry x="200" y="241" width="20" height="16" as="geometry" />
        </mxCell>
        <mxCell id="oP1qmsx0sS4jUwwxtjEG-42" style="edgeStyle=orthogonalEdgeStyle;rounded=0;orthogonalLoop=1;jettySize=auto;html=1;exitX=0;exitY=0.5;exitDx=0;exitDy=0;entryX=1.009;entryY=0.33;entryDx=0;entryDy=0;entryPerimeter=0;endArrow=none;endFill=0;" edge="1" parent="WIyWlLk6GJQsqaUBKTNV-1" source="oP1qmsx0sS4jUwwxtjEG-41" target="N5MiafKcvx-E3PKJ9pc5-11">
          <mxGeometry relative="1" as="geometry" />
        </mxCell>
        <mxCell id="oP1qmsx0sS4jUwwxtjEG-44" value="*" style="edgeLabel;html=1;align=center;verticalAlign=middle;resizable=0;points=[];" vertex="1" connectable="0" parent="oP1qmsx0sS4jUwwxtjEG-42">
          <mxGeometry x="0.3475" y="1" relative="1" as="geometry">
            <mxPoint as="offset" />
          </mxGeometry>
        </mxCell>
        <mxCell id="oP1qmsx0sS4jUwwxtjEG-48" value="" style="rhombus;whiteSpace=wrap;html=1;" vertex="1" parent="WIyWlLk6GJQsqaUBKTNV-1">
          <mxGeometry x="297.5" y="170" width="15" height="16" as="geometry" />
        </mxCell>
        <mxCell id="oP1qmsx0sS4jUwwxtjEG-49" style="edgeStyle=orthogonalEdgeStyle;rounded=0;orthogonalLoop=1;jettySize=auto;html=1;exitX=0.5;exitY=0;exitDx=0;exitDy=0;entryX=0.464;entryY=1.143;entryDx=0;entryDy=0;entryPerimeter=0;endArrow=none;endFill=0;" edge="1" parent="WIyWlLk6GJQsqaUBKTNV-1" source="oP1qmsx0sS4jUwwxtjEG-48" target="oP1qmsx0sS4jUwwxtjEG-4">
          <mxGeometry relative="1" as="geometry" />
        </mxCell>
        <mxCell id="oP1qmsx0sS4jUwwxtjEG-52" value="1" style="edgeLabel;html=1;align=center;verticalAlign=middle;resizable=0;points=[];" vertex="1" connectable="0" parent="oP1qmsx0sS4jUwwxtjEG-49">
          <mxGeometry x="0.6278" y="-1" relative="1" as="geometry">
            <mxPoint as="offset" />
          </mxGeometry>
        </mxCell>
        <mxCell id="oP1qmsx0sS4jUwwxtjEG-50" style="edgeStyle=orthogonalEdgeStyle;rounded=0;orthogonalLoop=1;jettySize=auto;html=1;exitX=0.5;exitY=1;exitDx=0;exitDy=0;entryX=0.468;entryY=-0.033;entryDx=0;entryDy=0;entryPerimeter=0;endArrow=none;endFill=0;" edge="1" parent="WIyWlLk6GJQsqaUBKTNV-1" source="oP1qmsx0sS4jUwwxtjEG-48" target="N5MiafKcvx-E3PKJ9pc5-30">
          <mxGeometry relative="1" as="geometry" />
        </mxCell>
        <mxCell id="oP1qmsx0sS4jUwwxtjEG-51" value="*" style="edgeLabel;html=1;align=center;verticalAlign=middle;resizable=0;points=[];" vertex="1" connectable="0" parent="oP1qmsx0sS4jUwwxtjEG-50">
          <mxGeometry x="0.2007" relative="1" as="geometry">
            <mxPoint as="offset" />
          </mxGeometry>
        </mxCell>
        <mxCell id="oP1qmsx0sS4jUwwxtjEG-56" style="edgeStyle=orthogonalEdgeStyle;rounded=0;orthogonalLoop=1;jettySize=auto;html=1;entryX=1.053;entryY=0.721;entryDx=0;entryDy=0;entryPerimeter=0;endArrow=none;endFill=0;" edge="1" parent="WIyWlLk6GJQsqaUBKTNV-1" source="oP1qmsx0sS4jUwwxtjEG-55" target="N5MiafKcvx-E3PKJ9pc5-67">
          <mxGeometry relative="1" as="geometry">
            <mxPoint x="570" y="700" as="targetPoint" />
          </mxGeometry>
        </mxCell>
        <mxCell id="oP1qmsx0sS4jUwwxtjEG-60" value="1" style="edgeLabel;html=1;align=center;verticalAlign=middle;resizable=0;points=[];" vertex="1" connectable="0" parent="oP1qmsx0sS4jUwwxtjEG-56">
          <mxGeometry x="0.8988" y="1" relative="1" as="geometry">
            <mxPoint as="offset" />
          </mxGeometry>
        </mxCell>
        <mxCell id="oP1qmsx0sS4jUwwxtjEG-55" value="" style="rhombus;whiteSpace=wrap;html=1;" vertex="1" parent="WIyWlLk6GJQsqaUBKTNV-1">
          <mxGeometry x="570" y="830" width="60" height="60" as="geometry" />
        </mxCell>
        <mxCell id="oP1qmsx0sS4jUwwxtjEG-58" style="edgeStyle=orthogonalEdgeStyle;rounded=0;orthogonalLoop=1;jettySize=auto;html=1;entryX=-0.03;entryY=-0.178;entryDx=0;entryDy=0;entryPerimeter=0;endArrow=none;endFill=0;" edge="1" parent="WIyWlLk6GJQsqaUBKTNV-1" source="oP1qmsx0sS4jUwwxtjEG-55" target="N5MiafKcvx-E3PKJ9pc5-116">
          <mxGeometry relative="1" as="geometry" />
        </mxCell>
        <mxCell id="oP1qmsx0sS4jUwwxtjEG-61" value="*" style="edgeLabel;html=1;align=center;verticalAlign=middle;resizable=0;points=[];" vertex="1" connectable="0" parent="oP1qmsx0sS4jUwwxtjEG-58">
          <mxGeometry x="0.1668" y="-1" relative="1" as="geometry">
            <mxPoint as="offset" />
          </mxGeometry>
        </mxCell>
        <mxCell id="oP1qmsx0sS4jUwwxtjEG-59" style="edgeStyle=orthogonalEdgeStyle;rounded=0;orthogonalLoop=1;jettySize=auto;html=1;entryX=1.009;entryY=-0.048;entryDx=0;entryDy=0;entryPerimeter=0;endArrow=none;endFill=0;" edge="1" parent="WIyWlLk6GJQsqaUBKTNV-1" source="oP1qmsx0sS4jUwwxtjEG-55" target="N5MiafKcvx-E3PKJ9pc5-82">
          <mxGeometry relative="1" as="geometry" />
        </mxCell>
        <mxCell id="oP1qmsx0sS4jUwwxtjEG-62" value="1" style="edgeLabel;html=1;align=center;verticalAlign=middle;resizable=0;points=[];" vertex="1" connectable="0" parent="oP1qmsx0sS4jUwwxtjEG-59">
          <mxGeometry x="0.8454" y="-1" relative="1" as="geometry">
            <mxPoint as="offset" />
          </mxGeometry>
        </mxCell>
        <mxCell id="oP1qmsx0sS4jUwwxtjEG-63" value="post" style="rhombus;whiteSpace=wrap;html=1;" vertex="1" parent="WIyWlLk6GJQsqaUBKTNV-1">
          <mxGeometry x="20" y="790" width="50" height="50" as="geometry" />
        </mxCell>
        <mxCell id="oP1qmsx0sS4jUwwxtjEG-64" style="edgeStyle=orthogonalEdgeStyle;rounded=0;orthogonalLoop=1;jettySize=auto;html=1;entryX=-0.006;entryY=-0.146;entryDx=0;entryDy=0;entryPerimeter=0;endArrow=none;endFill=0;" edge="1" parent="WIyWlLk6GJQsqaUBKTNV-1" source="oP1qmsx0sS4jUwwxtjEG-63" target="N5MiafKcvx-E3PKJ9pc5-106">
          <mxGeometry relative="1" as="geometry" />
        </mxCell>
        <mxCell id="oP1qmsx0sS4jUwwxtjEG-66" value="*" style="edgeLabel;html=1;align=center;verticalAlign=middle;resizable=0;points=[];" vertex="1" connectable="0" parent="oP1qmsx0sS4jUwwxtjEG-64">
          <mxGeometry x="0.8772" y="1" relative="1" as="geometry">
            <mxPoint as="offset" />
          </mxGeometry>
        </mxCell>
        <mxCell id="oP1qmsx0sS4jUwwxtjEG-65" style="edgeStyle=orthogonalEdgeStyle;rounded=0;orthogonalLoop=1;jettySize=auto;html=1;exitX=0.5;exitY=1;exitDx=0;exitDy=0;entryX=0.002;entryY=-0.127;entryDx=0;entryDy=0;entryPerimeter=0;endArrow=none;endFill=0;" edge="1" parent="WIyWlLk6GJQsqaUBKTNV-1" source="oP1qmsx0sS4jUwwxtjEG-63" target="N5MiafKcvx-E3PKJ9pc5-72">
          <mxGeometry relative="1" as="geometry" />
        </mxCell>
        <mxCell id="oP1qmsx0sS4jUwwxtjEG-67" value="1" style="edgeLabel;html=1;align=center;verticalAlign=middle;resizable=0;points=[];" vertex="1" connectable="0" parent="oP1qmsx0sS4jUwwxtjEG-65">
          <mxGeometry x="0.8576" y="1" relative="1" as="geometry">
            <mxPoint as="offset" />
          </mxGeometry>
        </mxCell>
        <mxCell id="oP1qmsx0sS4jUwwxtjEG-68" value="look" style="rhombus;whiteSpace=wrap;html=1;" vertex="1" parent="WIyWlLk6GJQsqaUBKTNV-1">
          <mxGeometry x="282.5" y="790" width="50" height="40" as="geometry" />
        </mxCell>
        <mxCell id="oP1qmsx0sS4jUwwxtjEG-70" style="edgeStyle=orthogonalEdgeStyle;rounded=0;orthogonalLoop=1;jettySize=auto;html=1;exitX=0.5;exitY=0;exitDx=0;exitDy=0;entryX=0.487;entryY=1.082;entryDx=0;entryDy=0;entryPerimeter=0;endArrow=none;endFill=0;" edge="1" parent="WIyWlLk6GJQsqaUBKTNV-1" source="oP1qmsx0sS4jUwwxtjEG-68" target="N5MiafKcvx-E3PKJ9pc5-107">
          <mxGeometry relative="1" as="geometry" />
        </mxCell>
        <mxCell id="oP1qmsx0sS4jUwwxtjEG-72" value="*" style="edgeLabel;html=1;align=center;verticalAlign=middle;resizable=0;points=[];" vertex="1" connectable="0" parent="oP1qmsx0sS4jUwwxtjEG-70">
          <mxGeometry x="0.2588" y="-1" relative="1" as="geometry">
            <mxPoint as="offset" />
          </mxGeometry>
        </mxCell>
        <mxCell id="oP1qmsx0sS4jUwwxtjEG-71" style="edgeStyle=orthogonalEdgeStyle;rounded=0;orthogonalLoop=1;jettySize=auto;html=1;exitX=0.5;exitY=1;exitDx=0;exitDy=0;entryX=0.472;entryY=-0.019;entryDx=0;entryDy=0;entryPerimeter=0;endArrow=none;endFill=0;" edge="1" parent="WIyWlLk6GJQsqaUBKTNV-1" source="oP1qmsx0sS4jUwwxtjEG-68" target="N5MiafKcvx-E3PKJ9pc5-49">
          <mxGeometry relative="1" as="geometry" />
        </mxCell>
        <mxCell id="oP1qmsx0sS4jUwwxtjEG-73" value="*" style="edgeLabel;html=1;align=center;verticalAlign=middle;resizable=0;points=[];" vertex="1" connectable="0" parent="oP1qmsx0sS4jUwwxtjEG-71">
          <mxGeometry x="0.3264" y="-1" relative="1" as="geometry">
            <mxPoint as="offset" />
          </mxGeometry>
        </mxCell>
        <mxCell id="oP1qmsx0sS4jUwwxtjEG-77" style="edgeStyle=orthogonalEdgeStyle;rounded=0;orthogonalLoop=1;jettySize=auto;html=1;entryX=0.5;entryY=0;entryDx=0;entryDy=0;endArrow=none;endFill=0;" edge="1" parent="WIyWlLk6GJQsqaUBKTNV-1" source="oP1qmsx0sS4jUwwxtjEG-74" target="N5MiafKcvx-E3PKJ9pc5-74">
          <mxGeometry relative="1" as="geometry" />
        </mxCell>
        <mxCell id="oP1qmsx0sS4jUwwxtjEG-78" style="edgeStyle=orthogonalEdgeStyle;rounded=0;orthogonalLoop=1;jettySize=auto;html=1;entryX=0.5;entryY=0;entryDx=0;entryDy=0;endArrow=none;endFill=0;" edge="1" parent="WIyWlLk6GJQsqaUBKTNV-1" source="oP1qmsx0sS4jUwwxtjEG-74" target="N5MiafKcvx-E3PKJ9pc5-79">
          <mxGeometry relative="1" as="geometry" />
        </mxCell>
        <mxCell id="oP1qmsx0sS4jUwwxtjEG-74" value="" style="verticalLabelPosition=bottom;verticalAlign=top;html=1;shape=mxgraph.basic.polygon;polyCoords=[[0.5,0],[0.5,0],[1,0.25],[1,0.75],[1,0.73],[0.5,0.98],[0,0.75],[0,0.25]];polyline=0;rotation=90;" vertex="1" parent="WIyWlLk6GJQsqaUBKTNV-1">
          <mxGeometry x="293.75" y="920" width="22.5" height="32" as="geometry" />
        </mxCell>
        <mxCell id="oP1qmsx0sS4jUwwxtjEG-76" style="edgeStyle=orthogonalEdgeStyle;rounded=0;orthogonalLoop=1;jettySize=auto;html=1;entryX=0.46;entryY=1.07;entryDx=0;entryDy=0;entryPerimeter=0;endArrow=none;endFill=0;" edge="1" parent="WIyWlLk6GJQsqaUBKTNV-1" source="oP1qmsx0sS4jUwwxtjEG-74" target="N5MiafKcvx-E3PKJ9pc5-50">
          <mxGeometry relative="1" as="geometry">
            <Array as="points">
              <mxPoint x="304" y="904" />
            </Array>
          </mxGeometry>
        </mxCell>
        <mxCell id="oP1qmsx0sS4jUwwxtjEG-79" style="edgeStyle=orthogonalEdgeStyle;rounded=0;orthogonalLoop=1;jettySize=auto;html=1;entryX=0.449;entryY=-0.041;entryDx=0;entryDy=0;entryPerimeter=0;endArrow=none;endFill=0;" edge="1" parent="WIyWlLk6GJQsqaUBKTNV-1" source="oP1qmsx0sS4jUwwxtjEG-74" target="N5MiafKcvx-E3PKJ9pc5-69">
          <mxGeometry relative="1" as="geometry" />
        </mxCell>
      </root>
    </mxGraphModel>
  </diagram>
</mxfile>
